<svg xmlns="http://www.w3.org/2000/svg" viewBox="0 0 30 32" fill="none">
  <g>
    <path d="M7.29578 30.4253C7.29578 30.4253 7.30354 30.4292 7.30612 30.4318C7.30224 30.4292 7.29836 30.4279 7.29578 30.4253Z" fill="#1C1C1C"/>
    <path d="M25.1834 6.6602C22.462 3.89309 18.7116 2.30518 14.8946 2.30518C14.8293 2.30518 14.7627 2.30518 14.6974 2.30648H14.6817C14.6256 2.30648 14.5694 2.30648 14.5132 2.30648C10.7576 2.30648 7.18088 3.77165 4.44251 6.43167C1.66496 9.13087 0.0874854 12.7572 0.00391077 16.6448C-0.0835814 20.6825 1.39726 24.4681 4.1735 27.3057C6.94322 30.1355 10.674 31.6947 14.6804 31.6947H14.6961C18.6149 31.6908 22.2883 30.1891 25.0371 27.4677C27.7729 24.7593 29.3164 21.1251 29.383 17.2376C29.4509 13.2404 27.9596 9.48476 25.1834 6.6602ZM15.1714 24.6C14.5877 26.2898 13.0233 27.3815 11.1846 27.3815C10.469 27.3815 9.76647 27.2169 9.09657 26.8918C7.26837 26.0051 5.82018 24.5347 4.66581 22.3997C3.11707 19.5333 2.87026 16.1355 3.98938 13.0772C5.11241 10.0071 7.50343 7.55862 10.5526 6.36246C12.5519 5.57764 14.1959 5.50974 14.1959 5.50974C14.1959 5.50974 12.9488 5.83359 11.9538 7.11725C11.0266 8.31341 10.8464 9.60229 10.9104 10.8859C10.9835 12.3616 11.4105 13.8685 12.2528 15.6288C12.5519 16.2517 12.86 16.885 13.1591 17.4962C13.7141 18.6323 14.2873 19.8075 14.8227 20.9802C15.4352 22.3226 15.5501 23.5057 15.1727 24.5974L15.1714 24.6ZM22.7976 25.0035C22.0167 25.8249 21.1365 26.4922 20.1297 27.0224C19.4011 27.4063 18.6136 27.6688 17.8053 27.8255L16.4759 28.084C16.4759 28.084 16.9461 27.8438 17.7087 26.8709C18.1631 26.2898 18.2937 26.1226 18.6006 25.074C18.8905 24.0829 18.705 21.4242 17.7818 19.34C17.3874 18.4481 16.9395 17.5536 16.5073 16.6892C16.143 15.9605 15.7669 15.207 15.4182 14.4496C14.9442 13.4206 14.6242 12.5496 14.4101 11.7086C14.1215 10.5725 14.3017 9.43905 14.9207 8.51843C15.5723 7.54687 16.6274 6.91353 17.8889 6.73594C18.12 6.70329 18.3525 6.68631 18.5771 6.68631C19.8881 6.68631 21.0882 7.23216 22.2491 8.3552C24.1909 10.2343 25.4132 12.6227 25.8846 15.4538C26.4762 19.0136 25.4367 22.226 22.7963 25.0022L22.7976 25.0035Z" fill="#1C1C1C"/>
  </g>
</svg>